<?xml version="1.0" standalone="no"?>
<!DOCTYPE svg PUBLIC "-//W3C//DTD SVG 20010904//EN"
 "http://www.w3.org/TR/2001/REC-SVG-20010904/DTD/svg10.dtd">
<svg version="1.0" xmlns="http://www.w3.org/2000/svg"
 width="3237.000000pt" height="2157.000000pt" viewBox="0 0 3237.000000 2157.000000"
 preserveAspectRatio="xMidYMid meet">

<g transform="translate(0.000000,2157.000000) scale(0.100000,-0.100000)"
fill="#000000" stroke="none">
<path d="M11470 20019 c-87 -24 -175 -64 -228 -104 -121 -91 -225 -223 -264
-334 -50 -142 -95 -439 -198 -1321 -11 -96 -25 -209 -30 -250 -8 -58 -85 -703
-114 -955 -14 -113 -38 -313 -51 -415 -8 -63 -26 -212 -40 -330 -14 -118 -27
-231 -30 -250 -2 -19 -20 -165 -40 -325 -19 -159 -37 -308 -40 -330 -3 -22
-19 -155 -35 -295 -17 -140 -37 -307 -45 -370 -8 -63 -35 -286 -60 -495 -25
-209 -56 -470 -70 -580 -13 -110 -49 -409 -80 -665 -30 -256 -62 -519 -70
-585 -8 -66 -23 -194 -34 -285 -11 -91 -34 -277 -51 -415 -16 -137 -32 -272
-36 -300 -8 -73 -11 -102 -33 -280 -26 -205 -78 -685 -86 -795 -4 -47 -9 -96
-11 -110 -3 -14 -7 -95 -11 -180 -7 -185 7 -267 68 -398 30 -66 54 -99 111
-156 69 -68 78 -74 153 -95 160 -43 557 -117 950 -175 854 -127 947 -141 1675
-260 322 -52 774 -125 1005 -161 231 -36 461 -72 510 -80 50 -8 153 -23 230
-35 77 -11 165 -25 195 -30 30 -5 105 -16 166 -24 145 -18 219 -6 354 61 78
39 111 63 181 133 82 81 88 89 112 166 50 159 115 568 182 1139 2 22 14 119
25 215 26 222 27 227 45 395 8 77 17 158 20 180 3 22 23 209 45 415 23 206 50
452 61 545 10 94 37 325 59 515 35 305 62 530 75 640 3 19 14 109 25 200 11
91 36 298 55 460 20 162 44 367 55 455 10 88 39 331 64 540 25 209 48 397 51
418 5 40 113 971 145 1257 11 96 23 193 25 216 92 772 227 2082 228 2214 2
162 -46 280 -163 404 -83 87 -151 126 -281 161 -177 46 -309 66 -2089 315
-504 70 -1179 165 -1530 215 -555 79 -1007 135 -1070 134 -25 0 -61 -5 -80
-10z m3138 -1178 c20 -10 46 -29 57 -41 l20 -22 -30 -24 c-74 -60 -135 -35
-135 55 0 29 16 51 37 51 8 0 30 -9 51 -19z m-3043 -156 c186 -28 1849 -267
3030 -436 788 -112 1580 -235 1623 -250 22 -8 23 -13 18 -76 -4 -38 -11 -129
-16 -203 -6 -74 -15 -178 -20 -230 -6 -52 -12 -115 -15 -140 -6 -65 -25 -248
-30 -295 -2 -22 -9 -85 -15 -140 -13 -122 -6 -57 -85 -775 -36 -327 -67 -608
-69 -625 -3 -16 -12 -95 -21 -175 -9 -80 -31 -278 -50 -440 -19 -162 -46 -398
-60 -525 -14 -126 -28 -246 -30 -265 -3 -19 -14 -114 -25 -210 -11 -96 -29
-254 -40 -350 -11 -96 -36 -310 -55 -475 -19 -165 -37 -318 -40 -340 -2 -22
-9 -83 -15 -135 -6 -52 -13 -108 -15 -125 -2 -16 -15 -131 -30 -255 -14 -124
-27 -243 -30 -265 -3 -22 -23 -197 -45 -390 -22 -192 -45 -384 -50 -425 -5
-41 -12 -102 -16 -135 -11 -106 -62 -468 -74 -523 -14 -63 -33 -85 -69 -78
-14 3 -138 21 -276 40 -317 45 -789 114 -1190 175 -110 16 -353 53 -540 80
-187 28 -384 58 -437 66 -54 8 -143 22 -198 30 116 -17 -516 77 -400 60 -55 8
-145 22 -200 30 -55 8 -144 22 -197 30 -54 8 -190 28 -303 45 -113 17 -263 40
-335 50 -71 11 -175 27 -230 35 -459 68 -708 109 -725 120 -4 2 -3 39 2 82 4
43 10 101 12 128 12 118 77 720 90 830 8 66 17 143 20 170 3 28 17 149 31 270
14 121 36 315 50 430 13 116 40 345 60 510 19 165 37 323 40 350 3 28 10 84
15 125 6 41 19 152 30 245 11 94 22 188 25 210 2 22 14 114 24 205 11 91 25
208 31 260 6 52 12 111 15 130 3 19 14 109 24 200 42 353 82 690 96 805 8 66
44 370 80 675 36 305 72 609 80 675 8 66 23 194 34 285 34 279 92 743 97 780
3 19 9 62 15 95 5 33 9 63 9 67 0 4 8 14 17 24 21 21 53 18 378 -31z m1342
-8418 c8 -5 10 -19 6 -37 -5 -30 -5 -30 42 -30 60 0 103 -25 150 -89 97 -133
141 -327 105 -462 -39 -146 -171 -285 -286 -302 -17 -3 -55 -1 -84 5 -28 5
-55 7 -58 3 -4 -3 8 -17 26 -31 49 -39 42 -48 -34 -40 -136 14 -337 97 -428
177 -41 36 -116 128 -116 143 0 17 26 -2 125 -89 120 -106 165 -132 257 -147
71 -11 149 3 237 44 l46 21 -38 7 c-74 14 -63 27 78 96 143 70 224 73 101 4
-71 -40 -110 -82 -101 -109 15 -49 83 -6 147 93 21 32 38 67 38 76 0 16 -98
121 -120 128 -5 2 -6 -21 -3 -52 5 -52 4 -56 -16 -56 -58 0 -161 141 -280 385
-43 88 -92 175 -110 194 -30 32 -34 33 -84 27 -28 -3 -63 -8 -77 -11 -14 -3 2
8 35 25 89 44 104 41 179 -34 52 -53 83 -74 179 -120 108 -52 147 -82 147
-114 0 -10 -8 -13 -27 -9 -35 7 -71 -13 -105 -57 -40 -50 -35 -53 21 -12 57
42 68 44 73 14 5 -36 27 -32 70 13 43 45 68 94 68 133 0 20 -12 29 -72 58 -40
19 -111 61 -158 92 -47 32 -102 67 -122 77 -21 11 -38 21 -38 22 0 6 216 -29
227 -36z m-689 -481 c5 -25 -6 -66 -18 -66 -6 0 -10 21 -10 46 0 32 4 44 13
42 6 -3 14 -13 15 -22z m205 -228 c25 -29 44 -54 42 -56 -7 -8 -105 81 -105
95 0 24 18 13 63 -39z"/>
<path d="M11434 17295 c-14 -9 -23 -30 -28 -62 -11 -78 -54 -424 -61 -483 -6
-52 -31 -265 -40 -340 -11 -83 -47 -412 -85 -760 -22 -206 -42 -391 -45 -410
-2 -19 -27 -237 -55 -485 -65 -581 -65 -584 -76 -664 -3 -27 -119 -1070 -139
-1251 -57 -533 -97 -992 -87 -1001 6 -6 239 -47 487 -84 55 -9 276 -42 490
-75 215 -32 539 -81 720 -109 182 -28 362 -55 400 -60 39 -6 266 -40 505 -76
1086 -164 1379 -203 1545 -207 l99 -3 13 55 c17 77 48 296 78 560 37 321 43
368 64 530 10 80 18 146 17 147 -9 11 -425 81 -1036 173 -573 86 -1550 237
-1643 254 -43 8 -81 17 -84 20 -13 12 49 674 68 722 7 19 16 24 42 24 19 0
193 -27 388 -59 195 -33 419 -69 499 -81 80 -12 204 -30 275 -41 133 -20 522
-76 585 -84 19 -2 82 -11 140 -19 149 -21 281 -35 387 -40 105 -5 97 -12 108
94 4 36 17 157 30 270 55 474 94 900 82 900 -3 0 -97 15 -209 34 -112 19 -367
60 -568 91 -201 31 -405 62 -455 70 -557 88 -694 110 -840 136 -240 42 -242
42 -249 82 -3 18 -4 55 -2 83 3 27 8 99 11 159 4 61 8 126 10 145 3 19 9 77
15 129 6 51 15 115 21 142 9 43 13 48 32 44 12 -2 103 -16 202 -30 235 -34
689 -103 1370 -209 601 -94 1095 -159 1121 -149 36 14 70 220 129 768 14 134
46 370 55 408 22 96 32 89 -162 125 -95 17 -243 43 -328 57 -780 123 -992 157
-1044 165 -34 4 -324 49 -646 99 -1739 269 -2017 311 -2050 311 -19 0 -45 -7
-56 -15z"/>
<path d="M13089 9975 c-33 -75 -30 -97 14 -118 52 -26 72 -10 63 50 -7 53 -31
113 -46 113 -6 0 -20 -20 -31 -45z"/>
<path d="M13080 9773 c0 -34 86 -114 103 -97 10 11 -15 64 -40 84 -25 20 -63
27 -63 13z"/>
<path d="M19530 17188 c-3 -3 -57 -8 -120 -12 -225 -12 -549 -81 -812 -172
-373 -130 -823 -381 -1002 -561 -84 -83 -113 -140 -141 -276 -30 -147 -70
-247 -150 -382 -274 -458 -427 -1017 -555 -2025 -6 -47 -12 -98 -15 -115 -2
-16 -13 -113 -24 -215 -59 -536 -68 -758 -34 -880 74 -268 285 -671 491 -940
325 -424 842 -786 1420 -996 383 -139 761 -196 1302 -198 418 -1 541 11 837
84 542 134 1071 405 1492 764 64 54 122 104 130 112 12 11 -25 57 -230 291
-304 346 -489 551 -595 661 l-83 84 -39 -22 c-21 -12 -90 -60 -153 -107 -144
-107 -270 -181 -429 -254 -238 -109 -524 -192 -760 -219 -118 -14 -388 -14
-495 0 -188 25 -462 103 -589 167 -252 127 -564 416 -743 690 -129 197 -232
509 -273 823 -15 115 -20 394 -9 510 69 713 405 1242 980 1539 297 154 584
222 940 222 451 1 898 -135 1295 -394 179 -116 264 -167 279 -167 19 0 123
120 338 389 337 421 527 674 527 703 0 34 -163 159 -396 305 -603 378 -1040
526 -1689 572 -164 12 -688 26 -695 19z"/>
<path d="M8089 17116 c-2 -2 -596 -6 -1319 -10 -1961 -9 -2489 -16 -2590 -32
l-43 -7 7 -381 c3 -210 9 -512 12 -673 l7 -292 26 -5 c14 -3 62 -5 106 -5 192
2 1714 -12 1754 -16 24 -2 45 -6 46 -7 2 -2 5 -851 9 -1888 3 -1037 8 -2040
11 -2230 2 -190 4 -497 5 -682 l0 -338 748 0 749 0 6 108 c4 59 7 501 8 982 0
481 2 1055 5 1275 2 220 4 934 4 1588 l1 1187 979 0 980 0 0 715 0 715 -754 0
c-415 -1 -755 -3 -757 -4z"/>
<path d="M22770 13825 l0 -3295 770 0 770 0 0 1270 0 1270 1310 0 c1041 0
1310 -3 1310 -12 0 -7 0 -579 0 -1270 l0 -1258 756 0 757 0 -7 1328 c-3 730
-9 2205 -12 3277 -3 1073 -9 1953 -12 1956 -4 4 -339 10 -745 14 l-737 7 2
-1351 3 -1351 -1312 0 -1313 0 -1 623 c0 342 -2 640 -3 662 -2 22 -4 238 -5
480 -1 242 -4 549 -8 683 l-6 243 -51 -2 c-77 -2 -1204 11 -1343 16 l-123 5 0
-3295z"/>
<path d="M16967 15933 c-183 -278 -290 -502 -400 -838 -110 -335 -179 -665
-204 -980 -23 -283 9 -707 50 -666 6 6 14 87 18 183 12 250 27 411 55 598 86
566 234 1095 416 1480 136 288 150 320 138 320 -5 0 -38 -44 -73 -97z"/>
<path d="M4090 9334 c-19 -2 -91 -9 -160 -14 -644 -55 -1104 -209 -1446 -484
-108 -86 -264 -252 -343 -362 -102 -144 -178 -307 -221 -475 -103 -401 -83
-1013 44 -1394 129 -384 361 -636 796 -864 268 -139 486 -221 915 -341 594
-166 748 -214 918 -281 228 -91 360 -171 464 -282 82 -88 95 -127 99 -297 5
-217 -15 -277 -133 -396 -126 -127 -273 -196 -495 -231 -160 -25 -587 -25
-783 1 -418 54 -781 161 -1185 351 -166 78 -367 166 -406 179 -18 6 -29 -6
-78 -89 -143 -240 -540 -1010 -552 -1072 -6 -29 -2 -34 42 -67 66 -48 393
-210 584 -289 499 -206 931 -310 1469 -352 224 -18 1086 -15 1216 4 284 41
638 153 855 268 335 179 638 478 789 779 180 359 248 854 185 1357 -74 591
-370 993 -957 1298 -284 147 -541 239 -1312 469 -496 149 -589 181 -728 253
-217 112 -298 244 -300 484 -1 99 0 103 40 185 102 205 245 288 545 317 115
11 456 11 598 -1 377 -30 699 -123 1270 -369 215 -92 197 -92 260 2 116 169
560 1050 560 1109 0 58 -592 326 -981 444 -204 61 -516 114 -844 142 -176 15
-645 27 -725 18z"/>
<path d="M22650 9299 c-620 -25 -1317 -298 -1855 -726 -141 -112 -386 -357
-499 -498 -368 -463 -624 -1059 -681 -1585 -3 -30 -8 -73 -10 -95 -15 -134
-26 -499 -20 -689 15 -512 74 -790 253 -1196 119 -272 218 -453 331 -605 96
-130 437 -470 602 -602 526 -419 1116 -660 1818 -743 259 -30 673 -30 980 0
656 65 1203 290 1800 740 125 94 211 170 211 186 0 42 -165 258 -529 693 -294
353 -318 381 -325 381 -3 0 -90 -56 -194 -124 -230 -151 -311 -198 -473 -275
-196 -93 -363 -146 -594 -187 -78 -14 -156 -18 -350 -19 -266 0 -359 9 -554
52 -744 163 -1259 740 -1398 1563 -25 148 -24 510 1 669 142 899 782 1519
1696 1642 139 19 439 16 585 -5 343 -51 670 -174 960 -362 247 -159 289 -184
311 -184 17 0 50 32 127 123 108 128 737 913 737 921 0 9 -236 212 -321 276
-330 248 -897 498 -1329 586 -183 37 -332 52 -636 64 -284 11 -356 11 -644 -1z"/>
<path d="M16712 9254 c-23 -24 -35 -54 -62 -164 -43 -176 -80 -281 -145 -410
-173 -344 -430 -599 -780 -774 -187 -93 -225 -99 -685 -122 -166 -8 -258 -21
-294 -42 -24 -14 -39 -42 -86 -162 -85 -214 -427 -1034 -818 -1960 -319 -756
-366 -867 -647 -1525 -473 -1108 -604 -1430 -589 -1445 6 -6 44 -14 85 -20 81
-10 917 -11 1279 -1 l225 6 229 573 230 572 1505 -2 1505 -3 39 -95 c21 -52
124 -306 228 -565 104 -258 193 -473 198 -478 11 -11 1378 -19 1478 -9 99 10
102 14 76 115 -12 48 -218 544 -501 1207 -264 619 -631 1478 -815 1910 -725
1700 -1044 2452 -1239 2925 -130 315 -185 429 -224 466 -20 19 -39 24 -94 27
-65 4 -71 3 -98 -24z m-506 -1956 c48 -95 131 -297 381 -923 318 -797 513
-1295 513 -1309 0 -5 -52 -11 -165 -21 -33 -3 -430 -8 -882 -11 -738 -6 -823
-5 -823 9 0 26 63 198 228 623 234 600 670 1702 679 1717 9 15 35 -17 69 -85z"/>
<path d="M7560 5925 l0 -3317 393 6 c662 10 1122 18 1124 20 6 5 13 341 19
881 4 347 7 631 8 631 0 1 168 4 371 8 204 3 408 9 455 11 331 21 412 26 465
30 629 51 829 83 1083 170 386 132 659 300 912 561 395 407 577 874 620 1594
12 197 4 402 -25 617 -74 566 -299 1031 -648 1340 -208 184 -472 257 -1337
368 -839 108 -1081 170 -1210 310 -71 77 -76 77 -1232 82 l-998 5 0 -3317z
m1840 2060 c146 -6 223 -10 490 -25 186 -11 186 -11 385 -36 307 -37 548 -118
740 -247 214 -145 389 -435 425 -707 12 -89 16 -474 6 -550 -30 -217 -47 -282
-101 -390 -69 -137 -208 -287 -346 -373 -191 -119 -468 -196 -809 -226 -258
-22 -264 -23 -792 -22 l-298 1 0 1296 0 1296 83 -6 c45 -3 143 -8 217 -11z"/>
<path d="M26060 5925 l0 -3315 2375 0 2375 0 0 690 0 690 -1600 0 -1600 0 0
28 c0 15 -1 314 -2 665 l-3 637 1438 0 1437 0 0 670 0 670 -1435 0 -1435 0 0
620 0 620 1580 0 1580 0 0 670 0 670 -2355 0 -2355 0 0 -3315z"/>
<path d="M16238 9204 c-3 -5 -20 -54 -38 -109 -43 -132 -88 -226 -160 -333
-175 -262 -375 -421 -649 -516 -192 -67 -344 -88 -518 -72 -90 9 -106 -1 -49
-28 125 -59 488 -35 698 45 197 76 433 281 588 510 51 74 123 226 139 291 18
76 9 248 -11 212z"/>
<path d="M15533 8845 c-100 -60 -158 -116 -150 -146 7 -24 -6 -32 -57 -33 -39
-1 -41 -3 -41 -31 0 -23 5 -31 22 -33 36 -5 122 47 188 113 60 60 143 171 134
180 -3 2 -46 -20 -96 -50z"/>
</g>
</svg>
